<?xml version="1.0" encoding="utf-8"?>
<!-- Generator: Adobe Illustrator 26.5.0, SVG Export Plug-In . SVG Version: 6.00 Build 0)  -->
<svg version="1.1" id="XBOX_Elite_Base" xmlns="http://www.w3.org/2000/svg" xmlns:xlink="http://www.w3.org/1999/xlink" x="0px"
	 y="0px" viewBox="0 0 750 630.5" style="enable-background:new 0 0 750 630.5;" xml:space="preserve">
<style type="text/css">
	.st0{fill:#050505;}
	.st1{fill:#0D0808;}
	.st2{fill:#141414;}
	.st3{fill:#120B0B;}
	.st4{fill:#191919;}
	.st5{fill:#171717;}
	.st6{fill:#0F0F0F;}
	.st7{fill:#1C1C1C;}
	.st8{fill:#242424;}
	.st9{fill:#292929;}
	.st10{fill:#1A1A1A;}
	.st11{fill:#1A1615;}
	.st12{fill:#0A0A0A;stroke:#000000;stroke-miterlimit:10;}
	.st13{fill:#6D6B6C;}
	.st14{fill:#080808;stroke:#140C0C;stroke-width:2;stroke-miterlimit:10;}
	.st15{stroke:#120B0B;stroke-width:2;stroke-miterlimit:10;}
	.st16{fill:#0A0A0A;}
	.st17{fill:#0D0D0D;}
	.st18{fill:#FFFFFF;}
</style>
<g id="Base_00000171698103051449824970000009504400116071568319_">
	<path id="Base_Background" d="M664.4,214c-6.7-16.7-20.5-20.9-21.8-22c-11.7-10.3-2.5-21.2-20-30.7c-18.3-9.9-72-37-114.2-31.4
		c-9.2,1.2-27.8,17.6-41.2,17.6H282.8c-13.4,0-32-16.4-41.2-17.6c-42.2-5.6-95.9,21.5-114.2,31.4c-17.5,9.5-8.2,20.4-19.9,30.7
		c-1.3,1.1-15.1,5.3-21.8,22C22.9,370-1.7,469.1,0.1,529.1C3,623.5,76.7,630.5,76.7,630.5c37-8.6,111.6-129.1,168.5-129.1h259.6
		c57,0,131.5,120.5,168.5,129.1c0,0,73.7-6.9,76.6-101.3C751.8,469.1,727.1,370,664.4,214z"/>
	<path id="Trim_00000096044975543006897750000018345462256351695758_" class="st0" d="M664.4,214c-2.6-6.7-7.1-12.5-12.9-16.8
		c-2.3-1.7-4.8-3.1-7.4-4.4c-0.5-0.2-1-0.5-1.5-0.8c-33.6-18-97.5-38.2-117.5-34.3c-26,5-65.5,79.7-89,79.7h-121
		c-23.4,0-63-74.7-89-79.7c-19.6-3.8-85.6,16.5-118.8,34.3c-0.4,0.2-0.8,0.5-1.2,0.6c-3.1,1.4-6,3.2-8.7,5.3
		c-5.3,4.2-9.4,9.8-11.8,16.1C22.9,370-1.7,469.1,0.1,529.1C3,623.5,76.7,630.5,76.7,630.5c37-8.6,111.6-129.1,168.5-129.1h259.6
		c57,0,131.5,120.5,168.5,129.1c0,0,73.7-6.9,76.6-101.3C751.8,469.1,727.1,370,664.4,214z"/>
</g>
<g id="Dpad">
	<g id="Base">
		<path id="Background_00000083802711892903807070000007995258006260090242_" d="M277.7,462.1c-33.5,0-60.6-27.1-60.6-60.6
			s27.1-60.6,60.6-60.6s60.6,27.1,60.6,60.6l0,0C338.3,435,311.1,462.1,277.7,462.1z"/>
		<path id="Stroke_00000067202789019611029830000003854698506710083004_" class="st1" d="M277.7,341.9c32.9,0,59.6,26.7,59.6,59.7
			s-26.7,59.6-59.7,59.6c-32.9,0-59.6-26.7-59.6-59.6C218,368.6,244.7,341.9,277.7,341.9 M277.6,339.9c-34,0-61.6,27.6-61.6,61.6
			s27.6,61.6,61.6,61.6s61.6-27.6,61.6-61.6l0,0C339.3,367.5,311.7,339.9,277.6,339.9z"/>
	</g>
	<g id="Arrows">
		<g id="Base_00000033354861371518991580000006651943448189185152_">
			<path id="Outline_00000085246032072289450230000014065564050205029038_" class="st2" d="M277.7,452.7c-7.1,0-12.7-1.3-13-3.1
				v-0.1V415c0-0.3-0.2-0.5-0.5-0.5h-34.4c-1.8,0-3.2-5.7-3.2-13.1s1.4-13.1,3.2-13.1h34.4c0.3,0,0.5-0.2,0.5-0.5v-34.4v-0.1
				l0.1-0.2l0.1-0.1c0.5-0.8,2.1-1.5,4.5-2l0.9-0.2c0.3-0.1,0.7-0.1,1-0.1h0.2l0.9-0.1l1-0.1l1-0.1l2.4-0.1h1
				c7.3,0,13.1,1.4,13.1,3.2c0,0.2,0,16,0,34.4c0,0.3,0.2,0.5,0.5,0.5h34.4c1.8,0,3.2,5.7,3.2,13.1s-1.4,13.1-3.2,13.1h-34.4
				c-0.3,0-0.5,0.2-0.5,0.5v34.4v0.1C290.4,451.4,284.8,452.7,277.7,452.7z"/>
			<path id="Stroke_00000049904512094043826270000007934021989032809143_" class="st3" d="M277.7,350.8c8.1,0,12.6,1.6,12.6,2.7
				v34.4c0,0.6,0.4,1,1,1h34.4c1.1,0,2.7,4.8,2.7,12.5s-1.6,12.6-2.7,12.6h-34.4c-0.6,0-1,0.4-1,1v34.5c-0.2,1.1-4.7,2.7-12.6,2.7
				s-12.4-1.5-12.6-2.7V415c0-0.6-0.4-1-1-1h-34.4c-1.1,0-2.8-4.8-2.8-12.6s1.6-12.6,2.8-12.6h34.4c0.6,0,1-0.4,1-1v-34.5l0,0v-0.1
				l0,0c0.1-0.2,0.9-1.1,4.2-1.8h0.1c0.3-0.1,0.5-0.1,0.8-0.2h0.1c0.3-0.1,0.5-0.1,0.8-0.1h0.2l0.9-0.1l0,0l1-0.1l0,0l1-0.1h0.1h0.6
				h0.6h1L277.7,350.8 M277.6,349.9h-1.2h-1h-0.2h-1h-0.1l-1,0.1l0,0l-1,0.1l0,0l-1,0.1l0,0c-0.3,0-0.6,0.1-0.9,0.1H270l-0.9,0.2
				l0,0c-2.4,0.5-4.2,1.2-4.9,2.2c0,0-0.1,0.1-0.1,0.2l0,0c0,0.1,0,0.1,0,0.2l0,0v0.1c0,0.1,0,0.1,0,0.2v34.4h-34.5
				c-5,0-5,27.1,0,27.1H264v34.4l0,0c0,0.1,0,0.2,0,0.2c0.4,2.3,7,3.5,13.5,3.5s13.1-1.2,13.5-3.5c0-0.1,0-0.2,0-0.2V415h34.4
				c5,0,5-27.1,0-27.1H291v-34.4l0,0c0-2.5-6.8-3.7-13.6-3.7L277.6,349.9z"/>
		</g>
		<g id="Outlines">
			<g id="Right">
				<path id="Right_Top" class="st4" d="M325.6,387.9l2.8-2.8c-0.8-0.5-1.8-0.8-2.8-0.9h-30.8l-3.6,3.6L325.6,387.9L325.6,387.9z"/>
				<path id="Right_Bottom" class="st5" d="M325.6,415h-34.4l3.6,3.6h32.3l0.3-0.4c0.3-0.1,0.6-0.3,0.9-0.5L325.6,415L325.6,415z"/>
				<path id="Right_Right" class="st6" d="M332,391.3c-0.8-3.4-2.2-5.2-3.5-6.1l-2.8,2.8c5,0,5,27.1,0,27.1l2.8,2.8
					c1.4-0.9,2.7-2.8,3.5-6.1c0.7-3.3,1.1-6.8,1-10.2C333.1,398.1,332.7,394.6,332,391.3z"/>
			</g>
			<g id="Down">
				<path id="Down_Right" class="st6" d="M291.2,449.5l2.8,2.8c0.5-0.8,0.8-1.8,0.8-2.8v-30.8l-3.6-3.6L291.2,449.5L291.2,449.5z"/>
				<path id="Down_Bottom" class="st5" d="M291.2,449.7c-0.4,2.3-7,3.5-13.5,3.5s-13.1-1.2-13.5-3.5c0-0.1,0-0.2,0-0.2l-2.8,2.8
					c0.9,1.4,2.8,2.7,6.2,3.5c6.7,1.4,13.6,1.4,20.4,0c3.4-0.8,5.2-2.2,6.1-3.5l-2.8-2.8C291.2,449.5,291.2,449.6,291.2,449.7z"/>
				<path id="Down_Left" class="st7" d="M264.1,449.5L264.1,449.5V415l-3.6,3.6v31.6l0.1,0.2c0.1,0.6,0.4,1.2,0.7,1.7L264.1,449.5z"
					/>
			</g>
			<g id="Left">
				<path id="Left_Top" class="st8" d="M264.1,387.9l-3.6-3.6h-30.8c-1,0-2,0.3-2.8,0.9l2.8,2.8L264.1,387.9L264.1,387.9z"/>
				<path id="Left_Left" class="st9" d="M229.7,387.9L229.7,387.9l-2.8-2.8c-1.4,0.9-2.7,2.7-3.5,6.1c-1.4,6.7-1.4,13.7,0,20.4
					c0.9,3.4,2.2,5.2,3.5,6.1l2.8-2.8C224.7,415,224.7,387.9,229.7,387.9z"/>
				<path id="Left_Bottom" class="st10" d="M229.7,415l-2.8,2.8c0.8,0.5,1.8,0.8,2.8,0.9h30.8l3.6-3.6L229.7,415L229.7,415z"/>
			</g>
			<g id="Up">
				<path id="Up_Top" class="st8" d="M269.2,350.5L269.2,350.5l0.9-0.2h0.1c0.3-0.1,0.6-0.1,0.9-0.1h0.1l1-0.1l0,0l1-0.1l0,0l1-0.1
					h0.1h1h0.2h1h1.2c6.8,0,13.6,1.2,13.6,3.7l2.8-2.8c-0.9-1.4-2.7-2.7-6.1-3.5c-6.7-1.4-13.6-1.4-20.4,0c-2.9,0.7-4.7,1.8-5.7,3
					l2.6,2.6C265,351.7,266.8,351,269.2,350.5z"/>
				<path id="Up_Right" class="st7" d="M291.2,353.5L291.2,353.5c0,0,0,15.4,0,34.4l3.6-3.6l0,0v-30.8c0-1-0.3-2-0.9-2.8
					L291.2,353.5L291.2,353.5z"/>
				<path id="Up_Left" class="st9" d="M264.1,353.5c0-0.1,0-0.1,0-0.2v-0.1l0,0c0-0.1,0-0.1,0-0.2l0,0c0-0.1,0.1-0.1,0.1-0.2
					l-2.6-2.6c-0.8,0.9-1.3,2.1-1.3,3.3v30.8l3.6,3.6L264.1,353.5z"/>
			</g>
		</g>
	</g>
</g>
<g id="Start">
	<g id="Button_00000021834908501971271890000012188166332933914287_">
		<path class="st11" d="M448.9,280.4c0,10.4-8.4,18.8-18.8,18.8s-18.8-8.4-18.8-18.8s8.4-18.8,18.8-18.8l0,0
			C440.5,261.6,448.9,270,448.9,280.4z"/>
		<path class="st12" d="M446.2,280.4c0,8.9-7.2,16.1-16.1,16.1s-16.1-7.2-16.1-16.1s7.2-16.1,16.1-16.1l0,0
			C439,264.3,446.2,271.5,446.2,280.4z"/>
	</g>
	<g id="Icon_00000165206953476602450400000000674140444678953911_">
		
			<rect id="Bottom_00000001645473280452457510000011929494266148481455_" x="422.9" y="283.5" class="st13" width="14.4" height="1.5"/>
		<rect id="Middle" x="422.9" y="279.7" class="st13" width="14.4" height="1.5"/>
		
			<rect id="Top_00000063606472872481095770000004690932979478311822_" x="422.9" y="275.7" class="st13" width="14.4" height="1.5"/>
	</g>
</g>
<g id="Select">
	<g id="Button">
		<path id="Stroke" class="st11" d="M340.9,280.4c0,10.4-8.4,18.8-18.8,18.8s-18.8-8.4-18.8-18.8s8.4-18.8,18.8-18.8
			S340.9,270,340.9,280.4L340.9,280.4z"/>
		<path id="Background_00000031188309490729475970000010316551788973656732_" class="st12" d="M338.2,280.4
			c0,8.9-7.2,16.1-16.1,16.1s-16.1-7.2-16.1-16.1s7.2-16.1,16.1-16.1S338.2,271.5,338.2,280.4C338.2,280.3,338.2,280.4,338.2,280.4z
			"/>
	</g>
	<g id="Icon">
		<polygon id="Back" class="st13" points="319.6,280.3 316.6,280.3 316.6,276.5 322,276.5 322,277.8 323.8,277.8 323.8,274.7 
			315,274.7 315,282.1 319.6,282.1 		"/>
		<path id="Front" class="st13" d="M320.4,278.4v7.6h9v-7.6H320.4z M327.5,284.2H322v-4h5.5V284.2z"/>
	</g>
</g>
<g id="Sticks">
	<g id="Right_Stick">
		<path id="Background_00000137096691481656342410000017972009884118017941_" class="st14" d="M473,465.5
			c-37.4,0-67.7-30.3-67.7-67.7s30.3-67.7,67.7-67.7s67.7,30.3,67.7,67.7l0,0C540.7,435.1,510.4,465.4,473,465.5z"/>
		<path id="Stick" class="st15" d="M529.2,393.8c0,31-25.1,56.1-56.1,56.1S417,424.8,417,393.8s25.1-56.1,56-56.1
			C504,337.7,529.1,362.8,529.2,393.8L529.2,393.8z"/>
	</g>
	<g id="Left_Stick">
		<path id="Background_00000034780056984936793990000015986561102968619174_" class="st14" d="M185.5,351.5
			c-37.4,0-67.7-30.3-67.7-67.7s30.3-67.7,67.7-67.7s67.7,30.3,67.7,67.7C253.1,321.2,222.8,351.5,185.5,351.5z"/>
		<path id="Stick_00000039849315978879865220000003686423929740964281_" class="st15" d="M241.6,279.9c0,31-25.1,56.1-56.1,56.1
			s-56.1-25.1-56.1-56.1s25.1-56.1,56.1-56.1C216.4,223.8,241.6,248.9,241.6,279.9C241.6,279.8,241.6,279.9,241.6,279.9z"/>
	</g>
</g>
<g id="Buttons">
	<g id="A">
		<path id="Background_00000085229842302439064070000011902325162624406956_" class="st16" d="M566.8,355.3
			c-13.9,0-25.2-11.3-25.2-25.2s11.3-25.2,25.2-25.2s25.2,11.3,25.2,25.2S580.7,355.3,566.8,355.3z"/>
		<path id="Outline_00000113322251519999204300000002800142293693435562_" class="st11" d="M566.8,306.4c13.1,0,23.7,10.6,23.7,23.7
			s-10.6,23.7-23.7,23.7c-13.1,0-23.7-10.6-23.7-23.7l0,0C543.1,317,553.7,306.4,566.8,306.4L566.8,306.4 M566.8,303.4
			c-14.7,0-26.7,12-26.7,26.7s12,26.7,26.7,26.7s26.7-12,26.7-26.7C593.5,315.3,581.5,303.4,566.8,303.4z"/>
	</g>
	<g id="Y">
		<path id="Background_00000167356260400804164060000000911073520744465305_" class="st16" d="M566.8,254.2
			c-13.9,0-25.2-11.3-25.2-25.2s11.3-25.2,25.2-25.2S592,215.1,592,229S580.7,254.2,566.8,254.2z"/>
		<path id="Outline_00000107561726767591921410000000588445665899921836_" class="st11" d="M566.8,205.3c13.1,0,23.7,10.6,23.7,23.7
			c0,13.1-10.6,23.7-23.7,23.7c-13.1,0-23.7-10.6-23.7-23.7l0,0C543.1,215.9,553.7,205.3,566.8,205.3 M566.8,202.3
			c-14.7,0-26.7,12-26.7,26.7s12,26.7,26.7,26.7s26.7-12,26.7-26.7l0,0C593.5,214.3,581.5,202.3,566.8,202.3L566.8,202.3z"/>
	</g>
	<g id="B">
		<path id="Background_00000094608716241056694860000001995580408030183569_" class="st16" d="M617.3,304.7
			c-13.9,0-25.2-11.3-25.2-25.2s11.3-25.2,25.2-25.2s25.2,11.3,25.2,25.2S631.2,304.7,617.3,304.7z"/>
		<path id="Outline_00000060742629366143768060000011533956521262949008_" class="st11" d="M617.3,255.8c13.1,0,23.7,10.6,23.7,23.7
			s-10.6,23.7-23.7,23.7c-13.1,0-23.7-10.6-23.7-23.7l0,0C593.6,266.5,604.2,255.8,617.3,255.8L617.3,255.8 M617.3,252.8
			c-14.7,0-26.7,12-26.7,26.7s12,26.7,26.7,26.7s26.7-12,26.7-26.7l0,0C644,264.8,632,252.9,617.3,252.8z"/>
	</g>
	<g id="X">
		<path id="Background" class="st16" d="M516.2,304.7c-13.9,0-25.2-11.3-25.2-25.2c0-13.9,11.3-25.2,25.2-25.2s25.2,11.3,25.2,25.2
			S530.1,304.7,516.2,304.7z"/>
		<path id="Outline" class="st11" d="M516.2,255.8c13.1,0,23.7,10.6,23.7,23.7s-10.6,23.7-23.7,23.7c-13.1,0-23.7-10.6-23.7-23.7
			l0,0C492.5,266.4,503.1,255.8,516.2,255.8L516.2,255.8 M516.2,252.8c-14.7,0-26.7,12-26.7,26.7s12,26.7,26.7,26.7
			s26.7-12,26.7-26.7S531,252.8,516.2,252.8z"/>
	</g>
</g>
<g id="Paddles_00000057139141558128326860000001800601389567374482_">
	<g id="Right_Paddles">
		<path id="Large_00000041253976321471013080000006969094133119344062_" class="st2" d="M421.1,550.2l19.4-0.5
			c1.3,0,2.6-0.2,3.9-0.4c14.7-2.3,27.3,0.7,37.8,8.6c0.2,0.2,0.5,0.4,0.7,0.6c13.5,12.5,26.3,25.5,38.4,39c0.2,0.2,0.4,0.5,0.6,0.8
			c16.6,23.9-14.9,46.3-32,22.4l-20.1-24.7c-2.7-3.3-4.9-6.9-6.6-10.8c-0.5-1.3-1-2.5-1.3-3.6c-0.2-0.7-0.5-1.4-0.8-2
			c-1.9-3.4-5.4-5.7-9.9-7.2c-0.2-0.1-0.5-0.1-0.7-0.2c-9.1-2.2-18.7-3.7-29.7-3.3c-0.3,0-0.5-0.2-0.5-0.5c-0.5-6-0.4-11.9,0.4-17.6
			C420.6,550.4,420.8,550.2,421.1,550.2z"/>
		<path id="Small_00000075125177368744207410000002264619939187336355_" class="st2" d="M421.6,521.8c11.9,0.3,25.1-1.7,37-5
			c1.1-0.3,2.1-0.8,2.9-1.5c0.4-0.3,0.8-0.6,1.2-1c3.6-3.1,7.8-5.4,12.4-6.8c5.3-1.5,12.1-3.3,14.9-3.6c26.1-1.9,28.9,36.1,2.8,38
			c0,0,0,0,0,0h-54.2h-17c-0.5,0-0.8-0.4-0.8-0.8c-1.5-6.2-1.5-12.4,0-18.4C420.8,522.1,421.2,521.7,421.6,521.8z"/>
	</g>
	<g id="Left_Paddles">
		<path id="Large" class="st2" d="M329.6,550.2l-19.4-0.5c-1.3,0-2.6-0.2-3.9-0.4c-14.7-2.3-27.3,0.7-37.8,8.6
			c-0.2,0.2-0.5,0.4-0.7,0.6c-13.5,12.5-26.3,25.5-38.4,39c-0.2,0.2-0.4,0.5-0.6,0.8c-16.6,23.9,14.9,46.3,32,22.4l20.1-24.7
			c2.7-3.3,4.9-6.9,6.6-10.8c0.5-1.3,1-2.5,1.3-3.6c0.2-0.7,0.5-1.4,0.8-2c1.9-3.4,5.4-5.7,9.9-7.2c0.2-0.1,0.5-0.1,0.7-0.2
			c9.1-2.2,18.7-3.7,29.7-3.3c0.3,0,0.5-0.2,0.5-0.5c0.5-6,0.4-11.9-0.4-17.6C330.1,550.4,329.9,550.2,329.6,550.2z"/>
		<path id="Small" class="st2" d="M329.1,521.8c-11.9,0.3-25.1-1.7-37-5c-1.1-0.3-2.1-0.8-2.9-1.5c-0.4-0.3-0.8-0.6-1.2-1
			c-3.6-3.1-7.8-5.4-12.4-6.8c-5.3-1.5-12.1-3.3-14.9-3.6c-26.1-1.9-28.9,36.1-2.8,38c0,0,0,0,0,0h54.2h17c0.5,0,0.8-0.4,0.8-0.8
			c1.5-6.2,1.5-12.4,0-18.4C329.9,522.1,329.5,521.7,329.1,521.8z"/>
	</g>
</g>
<g id="Bumpers">
	<g id="RB">
		<path id="Top_00000011006723121593736120000009631726279880804248_" class="st10" d="M642.5,192c-9-7.9-5.6-16.2-11.5-23.9
			c0.2,0.3,0.5,0.6,0.7,1c0,0-96.5-42.1-120.8-34.5c-15.6,4.9-27.2,15.3-32.8,18.2l15.8,29.5c11.2-12.7,22-23,31.1-24.8
			C545.1,153.8,609,174,642.5,192L642.5,192z"/>
		<path id="Bottom_00000061450440310382227470000016493050313952748416_" class="st17" d="M511,134.6
			c24.3-7.6,120.8,34.5,120.8,34.5c-0.2-0.3-0.5-0.6-0.7-1L631,168c-0.1-0.1-0.2-0.2-0.3-0.4l-0.1-0.2l-0.3-0.3
			c-0.1,0-0.1-0.1-0.2-0.2c-0.1-0.1-0.2-0.2-0.3-0.3l-0.2-0.2c-0.1-0.1-0.2-0.2-0.3-0.3s-0.1-0.1-0.2-0.2c-0.1-0.1-0.2-0.2-0.3-0.3
			l-0.2-0.2c-0.1-0.1-0.2-0.2-0.3-0.3l-0.2-0.2c-0.1-0.1-0.2-0.2-0.3-0.3l-0.3-0.2l-0.3-0.3c-0.1-0.1-0.2-0.1-0.3-0.2
			c-0.1-0.1-0.2-0.2-0.3-0.3s-0.2-0.1-0.3-0.2l-0.4-0.3l-0.3-0.2c-0.1-0.1-0.3-0.2-0.4-0.3l-0.3-0.2c-0.2-0.1-0.3-0.2-0.5-0.3
			c-0.1,0-0.2-0.1-0.3-0.2c-0.2-0.1-0.3-0.2-0.5-0.3l-0.2-0.2c-0.3-0.1-0.6-0.3-0.8-0.5c-18.3-9.9-72-37-114.2-31.4
			c-7.6,1-21.6,12.3-33.8,16.3l3.6,6.7C483.7,150,495.4,139.5,511,134.6z"/>
		<path id="Slit_00000051359518284242732610000018049764541701554844_" d="M478.1,152.8l-3.6-6.7c-0.3,0.1-0.7,0.2-1,0.3l-1,0.3
			l3.6,6.8l16.4,30.5c0.2-0.3,0.5-0.5,0.7-0.8s0.5-0.5,0.7-0.8L478.1,152.8z"/>
	</g>
	<g id="LB">
		<path id="Top_00000155850029000224360450000002138992927315654056_" class="st17" d="M241.6,129.9c-42.2-5.6-95.9,21.5-114.2,31.4
			c-0.3,0.2-0.6,0.3-0.8,0.5l-0.2,0.2c-0.2,0.1-0.4,0.2-0.5,0.3s-0.2,0.1-0.3,0.2l-0.4,0.3l-0.3,0.2c-0.1,0.1-0.3,0.2-0.4,0.3
			l-0.3,0.2l-0.4,0.3c-0.1,0.1-0.2,0.1-0.2,0.2c-0.1,0.1-0.3,0.2-0.4,0.3s-0.2,0.1-0.2,0.2c-0.1,0.1-0.2,0.2-0.4,0.3l-0.2,0.2
			c-0.1,0.1-0.2,0.2-0.3,0.3l-0.2,0.2c-0.1,0.1-0.2,0.2-0.3,0.3c-0.1,0.1-0.1,0.1-0.2,0.1c-0.1,0.1-0.2,0.2-0.3,0.3l-0.2,0.1
			c-0.1,0.1-0.2,0.2-0.3,0.3l-0.1,0.2c-0.1,0.1-0.2,0.2-0.3,0.4l-0.1,0.1c-0.1,0.1-0.2,0.2-0.3,0.4l-0.1,0.1
			c-0.1,0.1-0.2,0.3-0.3,0.4l0,0c-0.1,0.1-0.2,0.3-0.3,0.4v0.1c-0.1,0.1-0.2,0.3-0.3,0.5c0,0,97.7-42,122-34.4
			c15.5,4.9,27.2,15.3,32.8,18.2l3.4-6.3C264.1,142.9,249.5,130.9,241.6,129.9z"/>
		<path id="Bottom_00000082344157952174939770000017543974479862271163_" class="st10" d="M273.1,152.9
			c-5.6-2.9-17.3-13.4-32.8-18.2c-24.2-7.6-121.3,34.1-122,34.4c-5,7.4-2.2,15.3-10.8,23h-0.1c33.2-17.9,99.2-38.1,118.8-34.3
			c9.1,1.8,19.9,12.1,31.1,24.8L273.1,152.9L273.1,152.9z"/>
		<path id="Slit" d="M258,183.2c0.2,0.3,0.5,0.6,0.7,0.8l16.4-30.5l3.5-6.5c-0.4-0.1-0.7-0.1-1-0.2s-0.7-0.2-1-0.3l-3.4,6.3
			l-15.9,29.6C257.6,182.7,257.8,183,258,183.2L258,183.2"/>
	</g>
</g>
<g id="Triggers">
	<g id="R2">
		<path id="Outside_00000119089865356106793980000018279376770528126848_" class="st10" d="M549.1,5.5c-0.4-0.3-0.8-0.6-1.2-0.9
			l-2.3,110l53.3,7.2C586.7,5,555.8,10.8,549.1,5.5z"/>
		<path id="Inside_00000049917968750566823190000001358473169752869041_" class="st2" d="M522,0.1c-10.8,0.4-12,11.4-12.1,15.2v1.2
			c1.8,31,1.8,62.1,0,93.1c9.9,2.3,38.5,5.3,38.5,5.3s0-20.9,0.7-50.6c0.8-37.5-1.2-59.8-1.2-59.8C541.5,0.1,534.3-0.3,522,0.1z"/>
	</g>
	<g id="L2">
		<path id="Outside" class="st10" d="M201,5.5c0.4-0.3,0.8-0.6,1.2-0.9l2.3,110l-53.2,7.2C163.4,5,194.2,10.8,201,5.5z"/>
		<path id="Inside" class="st2" d="M228,0.1c10.8,0.4,12.1,11.4,12.2,15.2v1.2c-1.8,31-1.8,62.1,0,93.1c-9.9,2.3-38.5,5.3-38.5,5.3
			s0-20.9-0.7-50.6c-0.8-37.5,1.2-59.8,1.2-59.8C208.6,0.1,215.8-0.3,228,0.1z"/>
	</g>
</g>
<g id="XBOX_Logo">
	<g id="Trim">
		<path id="Bottom" class="st10" d="M375.6,156.5c0,0-88.9-1.1-100.5-3L258.7,184c20.2,23.3,41.6,53.3,56.4,53.3h121
			c14.9,0,36.2-30,56.5-53.3l-16.4-30.5C464.6,155.4,375.6,156.5,375.6,156.5z"/>
		<path id="Top" class="st17" d="M476.2,153.5l-3.6-6.8c-1.8,0.5-3.6,0.7-5.4,0.8H282.8c-1.4,0-2.9-0.2-4.3-0.5l-3.5,6.5
			c11.6,1.9,100.5,3,100.5,3S464.6,155.4,476.2,153.5z"/>
	</g>
	<g id="Circle_Glow">
		
			<image style="overflow:visible;opacity:0.75;enable-background:new    ;" width="102" height="102" id="Glow" xlink:href="6FA36A0F.png"  transform="matrix(1 0 0 1 324.24 145.41)">
		</image>
		<path id="Circle" class="st18" d="M407.6,196.4c0,18-14.6,32.6-32.6,32.6s-32.6-14.6-32.6-32.6s14.6-32.6,32.6-32.6l0,0
			C393,163.8,407.6,178.4,407.6,196.4z"/>
	</g>
	<path id="X_00000001659360887700028940000012446472153691251640_" class="st10" d="M384,182c0,0,8.9-9.4,13.8-8.9l0,0
		c-0.7-0.7-1.5-1.4-2.3-2l0,0c-0.4-0.3-0.8-0.6-1.2-0.9c0,0,0,0-0.1-0.1l-1.2-0.8l0,0c-0.4-0.1-0.8-0.1-1.2-0.2
		c-5.2-0.5-16.9,4.5-16.9,4.5s-11.6-5-16.9-4.5c-0.4,0-0.8,0.1-1.2,0.2l0,0l-1.2,0.8l-0.1,0.1c-0.4,0.3-0.8,0.6-1.2,0.9l0,0
		c-0.8,0.6-1.5,1.3-2.3,2l0,0c4.8-0.5,13.7,8.9,13.7,8.9s-17.7,20.9-17,34.1c1.1,1.4,2.3,2.8,3.6,4c-0.4-12,22.4-30.1,22.4-30.1
		s22.8,18.1,22.4,30.1c1.3-1.2,2.5-2.6,3.6-4l0,0C401.7,202.9,384,182,384,182z"/>
</g>
</svg>
