<?xml version="1.0" encoding="utf-8"?>
<!-- Generator: Adobe Illustrator 26.5.0, SVG Export Plug-In . SVG Version: 6.00 Build 0)  -->
<svg version="1.1" id="Layer_2_00000021087857723128001690000015739168078292774291_"
	 xmlns="http://www.w3.org/2000/svg" xmlns:xlink="http://www.w3.org/1999/xlink" x="0px" y="0px" viewBox="0 0 106.9 127"
	 style="enable-background:new 0 0 106.9 127;" xml:space="preserve">
<style type="text/css">
	.st0{fill:#141414;}
</style>
<g id="Paddles">
	<g id="Left_Paddles">
		<path id="Large" class="st0" d="M105.5,46.4l-19.4-0.5c-1.3,0-2.6-0.2-3.8-0.4c-14.7-2.2-27.3,0.7-37.8,8.6
			c-0.2,0.2-0.5,0.4-0.7,0.6c-13.5,12.5-26.3,25.5-38.4,39c-0.2,0.2-0.4,0.5-0.6,0.8c-16.6,23.9,14.9,46.3,32,22.4l20.1-24.7
			c2.7-3.3,4.9-6.9,6.6-10.8c0.5-1.3,1-2.5,1.3-3.6c0.2-0.7,0.5-1.4,0.8-2c1.9-3.4,5.4-5.7,9.9-7.2c0.2-0.1,0.5-0.2,0.7-0.2
			c9.1-2.2,18.7-3.7,29.7-3.3c0.3,0,0.5-0.2,0.5-0.5c0.5-6,0.4-11.9-0.4-17.6C106,46.6,105.8,46.4,105.5,46.4L105.5,46.4z"/>
		<path id="Small" class="st0" d="M104.9,18c-11.9,0.3-25.1-1.7-37-5c-1.1-0.3-2.1-0.8-2.9-1.5c-0.4-0.3-0.8-0.6-1.2-1
			C60.2,7.3,56,5,51.4,3.7C46,2.2,39.3,0.3,36.5,0.1c-26.1-1.9-28.9,36.1-2.8,38h0h54.2h17c0.5,0,0.8-0.4,0.8-0.8
			c1.5-6.2,1.5-12.4,0-18.4C105.8,18.3,105.4,17.9,104.9,18L104.9,18z"/>
	</g>
</g>
</svg>
